<svg width="25" height="25" viewBox="0 0 25 25" fill="none" xmlns="http://www.w3.org/2000/svg">
<path d="M12.5897 2.86133C11.1865 2.87905 9.84313 3.43249 8.83463 4.40833C7.82613 5.38416 7.22878 6.70859 7.16489 8.11047C7.10099 9.51234 7.57538 10.8856 8.49092 11.9492C9.40647 13.0127 10.6939 13.686 12.0897 13.8313V22.2413C12.0897 22.3739 12.1424 22.5011 12.2362 22.5949C12.3299 22.6887 12.4571 22.7413 12.5897 22.7413C12.7223 22.7413 12.8495 22.6887 12.9433 22.5949C13.037 22.5011 13.0897 22.3739 13.0897 22.2413V13.8313C14.4855 13.686 15.773 13.0127 16.6885 11.9492C17.604 10.8856 18.0784 9.51234 18.0145 8.11047C17.9506 6.70859 17.3533 5.38416 16.3448 4.40833C15.3363 3.43249 13.9929 2.87905 12.5897 2.86133ZM12.5897 12.8613C11.6997 12.8613 10.8297 12.5974 10.0896 12.1029C9.34962 11.6085 8.77285 10.9057 8.43225 10.0834C8.09166 9.26114 8.00254 8.35634 8.17618 7.48342C8.34981 6.61051 8.77839 5.80868 9.40773 5.17935C10.0371 4.55001 10.8389 4.12143 11.7118 3.94779C12.5847 3.77416 13.4895 3.86328 14.3118 4.20387C15.1341 4.54446 15.8369 5.12124 16.3313 5.86126C16.8258 6.60128 17.0897 7.47131 17.0897 8.36133C17.0897 8.95228 16.9733 9.53744 16.7472 10.0834C16.521 10.6294 16.1896 11.1254 15.7717 11.5433C15.3538 11.9612 14.8578 12.2926 14.3118 12.5188C13.7658 12.7449 13.1807 12.8613 12.5897 12.8613Z" fill="#BF9E5F"/>
</svg>
