<svg width="80" height="80" viewBox="0 0 80 80" fill="none" xmlns="http://www.w3.org/2000/svg">
<path d="M17.1924 59.5098C21.965 58.3434 28.8555 58.2988 37.6094 62.5762L38.4619 63.0039C55.23 71.6243 68.1868 64.2884 68.7861 63.9346L68.7852 63.9336C69.1466 63.7229 69.5771 63.6641 69.9824 63.7676C70.3874 63.8711 70.736 64.1296 70.9521 64.4873V64.4883C71.3952 65.2325 71.1532 66.1984 70.3975 66.6367L70.3906 66.6406C70.0527 66.8448 64.0315 70.3307 54.9297 70.333C48.6052 70.1627 42.6243 68.7143 36.9863 65.8115L36.9854 65.8105C28.9895 61.706 22.7362 61.5384 18.4062 62.4727C14.0862 63.4048 11.7269 65.424 11.4912 65.627L11.4561 65.6562C10.8507 66.1769 9.94994 66.161 9.36621 65.6367L9.25098 65.5215C9.11255 65.3697 9.00549 65.1922 8.93555 64.999C8.86559 64.8056 8.83441 64.6 8.84375 64.3945C8.85314 64.189 8.9029 63.9871 8.99023 63.8008C9.07756 63.6145 9.20059 63.4473 9.35254 63.3086L9.35352 63.3076C9.53893 63.1373 12.2531 60.7169 17.1924 59.5098ZM17.1914 44.5088C21.9644 43.3422 28.8555 43.2977 37.6094 47.5742L38.4619 48.002C54.183 56.0858 66.5556 50.1425 68.5332 49.0771L68.7881 48.9346C69.4865 48.5214 70.39 48.7167 70.8652 49.3564L70.9541 49.4893C71.3959 50.2323 71.1548 51.1986 70.3994 51.6367L70.3906 51.6416C70.0543 51.8463 64.0319 55.3307 54.9297 55.333C48.6069 55.1627 42.6242 53.7143 36.9863 50.8115L36.9854 50.8105C28.9886 46.7059 22.7351 46.5384 18.4053 47.4727C14.3028 48.3579 11.9693 50.2237 11.543 50.583L11.5303 50.5898L11.4795 50.6357C10.8339 51.2152 9.8323 51.1635 9.25098 50.5215L9.25 50.5205C8.97076 50.2138 8.82488 49.8089 8.84375 49.3945C8.8627 48.98 9.04534 48.5896 9.35156 48.3096L9.35352 48.3076C9.53748 48.1373 12.2514 45.7162 17.1914 44.5088ZM50.417 8.83398C52.8259 8.83398 55.1364 9.79083 56.8398 11.4941C58.5432 13.1975 59.4999 15.5081 59.5 17.917V47.5693C58.452 47.743 57.3949 47.8563 56.334 47.9092V34.501H29.5V40.2979C28.4141 40.0757 27.3583 39.9123 26.334 39.8018V17.917C26.3339 16.3479 25.7101 14.8429 24.6006 13.7334C23.491 12.624 21.9861 12.001 20.417 12.001C18.8479 12.001 17.3429 12.6239 16.2334 13.7334C15.1239 14.8429 14.5001 16.3479 14.5 17.917V19.584C14.5 20.0037 14.3338 20.4062 14.0371 20.7031C13.7402 21.0001 13.3369 21.167 12.917 21.167C12.4971 21.167 12.0947 21 11.7979 20.7031C11.501 20.4062 11.334 20.0039 11.334 19.584V17.917C11.3341 15.5081 12.2908 13.1975 13.9941 11.4941C15.6976 9.79078 18.008 8.83402 20.417 8.83398C22.8259 8.83398 25.1364 9.79083 26.8398 11.4941C28.5432 13.1975 29.4999 15.5081 29.5 17.917V31.334H56.334V17.917C56.3339 16.3479 55.7101 14.8429 54.6006 13.7334C53.491 12.624 51.9861 12.001 50.417 12.001C48.8479 12.001 47.3429 12.6239 46.2334 13.7334C45.1239 14.8429 44.5001 16.3479 44.5 17.917V19.584C44.5 20.0037 44.3338 20.4062 44.0371 20.7031C43.7402 21.0001 43.3369 21.167 42.917 21.167C42.4971 21.167 42.0947 21 41.7979 20.7031C41.501 20.4062 41.334 20.0039 41.334 19.584V17.917C41.3341 15.5081 42.2908 13.1975 43.9941 11.4941C45.6976 9.79078 48.008 8.83402 50.417 8.83398Z" fill="#BF9E5F" stroke="white"/>
</svg>
