<svg width="80" height="80" viewBox="0 0 80 80" fill="none" xmlns="http://www.w3.org/2000/svg">
<mask id="path-1-inside-1_649_5529" fill="white">
<path d="M41.2852 71C37.4222 70.5394 33.5864 69.5317 29.7778 67.9767C25.9693 66.4192 22.5186 64.1511 19.4257 61.1724C16.3303 58.1912 13.7599 54.4127 11.7145 49.8369C9.66903 45.2611 8.47793 39.7443 8.14115 33.2867L8 30.2857L10.8564 30.4305C13.4417 30.5717 16.5123 31.2241 20.0683 32.3879C23.6267 33.5467 26.6465 35.0262 29.1278 36.8263C29.4423 32.1712 30.5938 27.2686 32.5822 22.1183C34.5707 16.9681 37.0433 12.5953 40 9C42.9567 12.5953 45.4293 16.9916 47.4178 22.1889C49.4062 27.3862 50.5577 32.3136 50.8722 36.9711C53.2098 35.3121 56.1096 33.8438 59.5714 32.5662C63.0333 31.2885 66.177 30.5754 69.0024 30.4268L72 30.2857L71.8588 33.4278C71.6682 38.5533 70.8708 43.1539 69.4667 47.2296C68.0627 51.3052 66.0754 54.8807 63.505 57.956C60.9346 61.0313 57.8058 63.6435 54.1186 65.7928C50.4314 67.942 46.1536 69.6778 41.2852 71ZM41.2406 67.2413C40.5596 56.9655 37.5113 49.1968 32.0956 43.9351C26.68 38.6734 19.9469 35.4236 11.8965 34.1855C12.5774 44.7708 15.7199 52.6633 21.3237 57.8631C26.9276 63.0629 33.5666 66.189 41.2406 67.2413ZM40 48.5146C40.8345 46.9621 41.9055 45.3391 43.213 43.6454C44.518 41.9518 45.8614 40.5317 47.2432 39.3853C47.2159 35.5721 46.5672 31.5918 45.2968 27.4444C44.0265 23.2969 42.2609 19.3253 40 15.5294C37.7391 19.3253 35.9735 23.2969 34.7032 27.4444C33.4328 31.5918 32.7841 35.5721 32.7568 39.3853C34.1386 40.5342 35.4746 41.9543 36.7647 43.6454C38.0549 45.3391 39.1333 46.9609 40 48.5109M44.9588 66.0008C47.866 65.0178 50.653 63.7191 53.32 62.1047C55.9895 60.4927 58.3791 58.4277 60.4889 55.9095C62.6012 53.3938 64.3334 50.3569 65.6854 46.7987C67.035 43.2431 67.8398 39.0387 68.0998 34.1855C62.0898 35.0522 56.7447 37.1655 52.0645 40.5255C47.3843 43.8856 44.0104 48.0058 41.9427 52.8862C42.6855 54.867 43.296 56.8665 43.7739 58.8845C44.2518 60.9025 44.6468 63.2746 44.9588 66.0008Z"/>
</mask>
<path d="M41.2852 71C37.4222 70.5394 33.5864 69.5317 29.7778 67.9767C25.9693 66.4192 22.5186 64.1511 19.4257 61.1724C16.3303 58.1912 13.7599 54.4127 11.7145 49.8369C9.66903 45.2611 8.47793 39.7443 8.14115 33.2867L8 30.2857L10.8564 30.4305C13.4417 30.5717 16.5123 31.2241 20.0683 32.3879C23.6267 33.5467 26.6465 35.0262 29.1278 36.8263C29.4423 32.1712 30.5938 27.2686 32.5822 22.1183C34.5707 16.9681 37.0433 12.5953 40 9C42.9567 12.5953 45.4293 16.9916 47.4178 22.1889C49.4062 27.3862 50.5577 32.3136 50.8722 36.9711C53.2098 35.3121 56.1096 33.8438 59.5714 32.5662C63.0333 31.2885 66.177 30.5754 69.0024 30.4268L72 30.2857L71.8588 33.4278C71.6682 38.5533 70.8708 43.1539 69.4667 47.2296C68.0627 51.3052 66.0754 54.8807 63.505 57.956C60.9346 61.0313 57.8058 63.6435 54.1186 65.7928C50.4314 67.942 46.1536 69.6778 41.2852 71ZM41.2406 67.2413C40.5596 56.9655 37.5113 49.1968 32.0956 43.9351C26.68 38.6734 19.9469 35.4236 11.8965 34.1855C12.5774 44.7708 15.7199 52.6633 21.3237 57.8631C26.9276 63.0629 33.5666 66.189 41.2406 67.2413ZM40 48.5146C40.8345 46.9621 41.9055 45.3391 43.213 43.6454C44.518 41.9518 45.8614 40.5317 47.2432 39.3853C47.2159 35.5721 46.5672 31.5918 45.2968 27.4444C44.0265 23.2969 42.2609 19.3253 40 15.5294C37.7391 19.3253 35.9735 23.2969 34.7032 27.4444C33.4328 31.5918 32.7841 35.5721 32.7568 39.3853C34.1386 40.5342 35.4746 41.9543 36.7647 43.6454C38.0549 45.3391 39.1333 46.9609 40 48.5109M44.9588 66.0008C47.866 65.0178 50.653 63.7191 53.32 62.1047C55.9895 60.4927 58.3791 58.4277 60.4889 55.9095C62.6012 53.3938 64.3334 50.3569 65.6854 46.7987C67.035 43.2431 67.8398 39.0387 68.0998 34.1855C62.0898 35.0522 56.7447 37.1655 52.0645 40.5255C47.3843 43.8856 44.0104 48.0058 41.9427 52.8862C42.6855 54.867 43.296 56.8665 43.7739 58.8845C44.2518 60.9025 44.6468 63.2746 44.9588 66.0008Z" fill="#BF9E5F"/>
<path d="M41.2852 71L41.1787 71.8937L41.3523 71.9144L41.5211 71.8685L41.2852 71ZM29.7778 67.9767L29.4372 68.8097L29.4376 68.8099L29.7778 67.9767ZM19.4257 61.1724L18.8013 61.8206L18.8013 61.8207L19.4257 61.1724ZM8.14115 33.2867L7.24213 33.329L7.24237 33.3336L8.14115 33.2867ZM8 30.2857L8.04558 29.3868L7.05436 29.3366L7.10099 30.328L8 30.2857ZM10.8564 30.4305L10.9055 29.5319L10.902 29.5317L10.8564 30.4305ZM20.0683 32.3879L19.7883 33.2432L19.7896 33.2437L20.0683 32.3879ZM29.1278 36.8263L28.5993 37.5548L29.9161 38.5101L30.0258 36.8869L29.1278 36.8263ZM40 9L40.6951 8.42834L40 7.58308L39.3049 8.42834L40 9ZM50.8722 36.9711L49.9742 37.0318L50.0825 38.6352L51.3931 37.7051L50.8722 36.9711ZM69.0024 30.4268L68.9601 29.5278L68.9552 29.5281L69.0024 30.4268ZM72 30.2857L72.8991 30.3261L72.9434 29.3403L71.9577 29.3867L72 30.2857ZM71.8588 33.4278L70.9597 33.3875L70.9595 33.3944L71.8588 33.4278ZM41.2406 67.2413L41.1184 68.133L42.2116 68.2829L42.1387 67.1818L41.2406 67.2413ZM11.8965 34.1855L12.0333 33.296L10.9264 33.1258L10.9983 34.2433L11.8965 34.1855ZM43.213 43.6454L43.9254 44.1954L43.9259 44.1947L43.213 43.6454ZM47.2432 39.3853L47.8178 40.078L48.1462 39.8055L48.1432 39.3789L47.2432 39.3853ZM40 15.5294L40.7732 15.0689L40 13.7707L39.2268 15.0689L40 15.5294ZM32.7568 39.3853L31.8568 39.3789L31.8538 39.8049L32.1814 40.0773L32.7568 39.3853ZM36.7647 43.6454L37.4806 43.1L37.4803 43.0995L36.7647 43.6454ZM44.9588 66.0008L44.0646 66.1031L44.1914 67.2103L45.2471 66.8534L44.9588 66.0008ZM53.32 62.1047L52.8548 61.3342L52.854 61.3347L53.32 62.1047ZM60.4889 55.9095L59.7997 55.3308L59.799 55.3315L60.4889 55.9095ZM65.6854 46.7987L66.5267 47.1184L66.5269 47.1181L65.6854 46.7987ZM68.0998 34.1855L68.9985 34.2337L69.0572 33.1382L67.9714 33.2947L68.0998 34.1855ZM41.9427 52.8862L41.114 52.5351L40.9738 52.8658L41.1 53.2022L41.9427 52.8862ZM41.2852 71L41.3917 70.1063C37.6134 69.6559 33.8561 68.6697 30.118 67.1435L29.7778 67.9767L29.4376 68.8099C33.3167 70.3937 37.2309 71.423 41.1787 71.8937L41.2852 71ZM29.7778 67.9767L30.1185 67.1437C26.4199 65.6312 23.0645 63.4274 20.05 60.5242L19.4257 61.1724L18.8013 61.8207C21.9726 64.8749 25.5187 67.2073 29.4372 68.8097L29.7778 67.9767ZM19.4257 61.1724L20.05 60.5242C17.0504 57.6352 14.5421 53.9572 12.5361 49.4696L11.7145 49.8369L10.8928 50.2042C12.9776 54.8681 15.6101 58.7472 18.8013 61.8206L19.4257 61.1724ZM11.7145 49.8369L12.5361 49.4696C10.5469 45.0196 9.37253 39.6174 9.03993 33.2398L8.14115 33.2867L7.24237 33.3336C7.58332 39.8713 8.79116 45.5026 10.8928 50.2042L11.7145 49.8369ZM8.14115 33.2867L9.04016 33.2444L8.89901 30.2434L8 30.2857L7.10099 30.328L7.24214 33.329L8.14115 33.2867ZM8 30.2857L7.95442 31.1845L10.8108 31.3294L10.8564 30.4305L10.902 29.5317L8.04558 29.3868L8 30.2857ZM10.8564 30.4305L10.8074 31.3292C13.2878 31.4646 16.277 32.0941 19.7883 33.2432L20.0683 32.3879L20.3482 31.5325C16.7475 30.3541 13.5956 29.6787 10.9055 29.5319L10.8564 30.4305ZM20.0683 32.3879L19.7896 33.2437C23.2776 34.3795 26.2088 35.8205 28.5993 37.5548L29.1278 36.8263L29.6563 36.0978C27.0843 34.2318 23.9758 32.7139 20.3469 31.5321L20.0683 32.3879ZM29.1278 36.8263L30.0258 36.8869C30.3331 32.3369 31.4602 27.5234 33.4218 22.4425L32.5822 22.1183L31.7426 21.7942C29.7274 27.0138 28.5514 32.0055 28.2298 36.7656L29.1278 36.8263ZM32.5822 22.1183L33.4218 22.4425C35.3819 17.3657 37.8096 13.0804 40.6951 9.57166L40 9L39.3049 8.42834C36.277 12.1102 33.7595 16.5704 31.7426 21.7942L32.5822 22.1183ZM40 9L39.3049 9.57166C42.1892 13.079 44.6168 17.3866 46.5772 22.5105L47.4178 22.1889L48.2583 21.8673C46.2418 16.5965 43.7242 12.1116 40.6951 8.42834L40 9ZM47.4178 22.1889L46.5772 22.5105C48.5396 27.6397 49.6668 32.4788 49.9742 37.0318L50.8722 36.9711L51.7702 36.9105C51.4486 32.1484 50.2729 27.1327 48.2583 21.8673L47.4178 22.1889ZM50.8722 36.9711L51.3931 37.7051C53.6507 36.1029 56.4754 34.6682 59.8831 33.4105L59.5714 32.5662L59.2598 31.7218C55.7438 33.0195 52.769 34.5214 50.3513 36.2372L50.8722 36.9711ZM59.5714 32.5662L59.8831 33.4105C63.2843 32.1552 66.3373 31.4682 69.0497 31.3256L69.0024 30.4268L68.9552 29.5281C66.0167 29.6826 62.7823 30.4218 59.2598 31.7218L59.5714 32.5662ZM69.0024 30.4268L69.0448 31.3258L72.0423 31.1847L72 30.2857L71.9577 29.3867L68.9601 29.5278L69.0024 30.4268ZM72 30.2857L71.1009 30.2453L70.9598 33.3875L71.8588 33.4278L72.7579 33.4682L72.8991 30.3261L72 30.2857ZM71.8588 33.4278L70.9595 33.3944C70.7715 38.4477 69.9862 42.9586 68.6158 46.9364L69.4667 47.2296L70.3177 47.5227C71.7554 43.3492 72.5649 38.659 72.7582 33.4613L71.8588 33.4278ZM69.4667 47.2296L68.6158 46.9364C67.2448 50.9163 65.3094 54.3938 62.8145 57.3788L63.505 57.956L64.1956 58.5331C66.8415 55.3676 68.8806 51.6941 70.3177 47.5227L69.4667 47.2296ZM63.505 57.956L62.8145 57.3788C60.3152 60.369 57.2684 62.9151 53.6654 65.0152L54.1186 65.7928L54.5719 66.5703C58.3433 64.372 61.5541 61.6936 64.1956 58.5331L63.505 57.956ZM54.1186 65.7928L53.6654 65.0152C50.0574 67.1183 45.855 68.8263 41.0493 70.1315L41.2852 71L41.5211 71.8685C46.4522 70.5293 50.8055 68.7657 54.5719 66.5703L54.1186 65.7928ZM41.2406 67.2413L42.1387 67.1818C41.4484 56.7655 38.3484 48.7552 32.7228 43.2896L32.0956 43.9351L31.4685 44.5806C36.6743 49.6384 39.6709 57.1656 40.3426 67.3008L41.2406 67.2413ZM32.0956 43.9351L32.7228 43.2896C27.1623 37.8872 20.2532 34.5601 12.0333 33.296L11.8965 34.1855L11.7597 35.0751C19.6406 36.287 26.1977 39.4597 31.4685 44.5806L32.0956 43.9351ZM11.8965 34.1855L10.9983 34.2433C11.6883 44.9685 14.8827 53.1143 20.7116 58.5229L21.3237 57.8631L21.9359 57.2034C16.5571 52.2124 13.4666 44.5731 12.7946 34.1277L11.8965 34.1855ZM21.3237 57.8631L20.7116 58.5229C26.4529 63.8502 33.2636 67.0558 41.1184 68.133L41.2406 67.2413L41.3629 66.3496C33.8695 65.3221 27.4023 62.2756 21.9359 57.2034L21.3237 57.8631ZM40 48.5146L40.7927 48.9408C41.5996 47.4397 42.6419 45.858 43.9254 44.1954L43.213 43.6454L42.5006 43.0954C41.1691 44.8202 40.0694 46.4846 39.2073 48.0885L40 48.5146ZM43.213 43.6454L43.9259 44.1947C45.1977 42.5442 46.4959 41.1747 47.8178 40.078L47.2432 39.3853L46.6685 38.6927C45.2269 39.8888 43.8383 41.3594 42.5001 43.0961L43.213 43.6454ZM47.2432 39.3853L48.1432 39.3789C48.1152 35.4675 47.4498 31.4004 46.1573 27.1808L45.2968 27.4444L44.4363 27.708C45.6845 31.7833 46.3167 35.6768 46.3432 39.3917L47.2432 39.3853ZM45.2968 27.4444L46.1573 27.1808C44.8655 22.9632 43.0703 18.9255 40.7732 15.0689L40 15.5294L39.2268 15.99C41.4514 19.7251 43.1874 23.6307 44.4363 27.708L45.2968 27.4444ZM40 15.5294L39.2268 15.0689C36.9297 18.9255 35.1345 22.9632 33.8427 27.1808L34.7032 27.4444L35.5637 27.708C36.8126 23.6307 38.5486 19.7251 40.7732 15.99L40 15.5294ZM34.7032 27.4444L33.8427 27.1808C32.5502 31.4004 31.8848 35.4675 31.8568 39.3789L32.7568 39.3853L33.6568 39.3917C33.6833 35.6768 34.3155 31.7833 35.5637 27.708L34.7032 27.4444ZM32.7568 39.3853L32.1814 40.0773C33.5027 41.1759 34.7928 42.5444 36.0492 44.1913L36.7647 43.6454L37.4803 43.0995C36.1563 41.3641 34.7745 39.8925 33.3322 38.6933L32.7568 39.3853ZM36.7647 43.6454L36.0488 44.1908C37.3181 45.8571 38.372 47.4435 39.2145 48.9502L40 48.5109L40.7855 48.0717C39.8946 46.4783 38.7916 44.821 37.4806 43.1L36.7647 43.6454ZM44.9588 66.0008L45.2471 66.8534C48.2173 65.849 51.0639 64.5224 53.7861 62.8746L53.32 62.1047L52.854 61.3347C50.2422 62.9157 47.5146 64.1865 44.6705 65.1482L44.9588 66.0008ZM53.32 62.1047L53.7852 62.8751C56.5441 61.2091 59.0087 59.0777 61.1788 56.4875L60.4889 55.9095L59.799 55.3315C57.7496 57.7777 55.4348 59.7763 52.8548 61.3342L53.32 62.1047ZM60.4889 55.9095L61.1782 56.4882C63.3647 53.8841 65.1444 50.7561 66.5267 47.1184L65.6854 46.7987L64.8441 46.479C63.5223 49.9576 61.8377 52.9034 59.7997 55.3308L60.4889 55.9095ZM65.6854 46.7987L66.5269 47.1181C67.9171 43.4552 68.7349 39.1552 68.9985 34.2337L68.0998 34.1855L67.2011 34.1374C66.9448 38.9221 66.1529 43.0309 64.844 46.4793L65.6854 46.7987ZM68.0998 34.1855L67.9714 33.2947C61.8263 34.1809 56.3436 36.3455 51.5397 39.7945L52.0645 40.5255L52.5894 41.2566C57.1459 37.9854 62.3534 35.9235 68.2283 35.0763L68.0998 34.1855ZM52.0645 40.5255L51.5397 39.7945C46.7373 43.2422 43.2517 47.4894 41.114 52.5351L41.9427 52.8862L42.7713 53.2373C44.769 48.5222 48.0313 44.529 52.5894 41.2566L52.0645 40.5255ZM41.9427 52.8862L41.1 53.2022C41.8298 55.1483 42.4291 57.1115 42.8981 59.0919L43.7739 58.8845L44.6497 58.6771C44.1628 56.6215 43.5413 54.5858 42.7853 52.5701L41.9427 52.8862ZM43.7739 58.8845L42.8981 59.0919C43.3657 61.0663 43.7555 63.4017 44.0646 66.1031L44.9588 66.0008L45.853 65.8984C45.5381 63.1475 45.1379 60.7387 44.6497 58.6771L43.7739 58.8845Z" fill="white" mask="url(#path-1-inside-1_649_5529)"/>
</svg>
