<svg width="80" height="80" viewBox="0 0 80 80" fill="none" xmlns="http://www.w3.org/2000/svg">
<path d="M23.2 57.958C28.1498 61.0788 33.8818 62.7349 39.7333 62.7349M39.7333 62.7349C45.5848 62.7349 51.3169 61.0788 56.2667 57.958M39.7333 62.7349V71M39.7333 54.4667C45.7626 54.4667 51.5449 52.0716 55.8082 47.8082C60.0716 43.5449 62.4667 37.7626 62.4667 31.7333C62.4667 25.7041 60.0716 19.9218 55.8082 15.6584C51.5449 11.3951 45.7626 9 39.7333 9C33.7041 9 27.9218 11.3951 23.6584 15.6584C19.3951 19.9218 17 25.7041 17 31.7333C17 37.7626 19.3951 43.5449 23.6584 47.8082C27.9218 52.0716 33.7041 54.4667 39.7333 54.4667Z" stroke="#BF9E5F" stroke-width="2" stroke-linecap="round" stroke-linejoin="round"/>
<path d="M43.8669 38.9673C43.5928 38.9673 43.33 38.8584 43.1362 38.6647C42.9424 38.4709 42.8335 38.208 42.8335 37.934C42.8335 37.6599 42.9424 37.3971 43.1362 37.2033C43.33 37.0095 43.5928 36.9007 43.8669 36.9007M43.8669 38.9673C44.1409 38.9673 44.4038 38.8584 44.5975 38.6647C44.7913 38.4709 44.9002 38.208 44.9002 37.934C44.9002 37.6599 44.7913 37.3971 44.5975 37.2033C44.4038 37.0095 44.1409 36.9007 43.8669 36.9007M39.7335 47.234C39.4595 47.234 39.1966 47.1251 39.0029 46.9313C38.8091 46.7375 38.7002 46.4747 38.7002 46.2007C38.7002 45.9266 38.8091 45.6638 39.0029 45.47C39.1966 45.2762 39.4595 45.1673 39.7335 45.1673M39.7335 47.234C40.0076 47.234 40.2704 47.1251 40.4642 46.9313C40.658 46.7375 40.7669 46.4747 40.7669 46.2007C40.7669 45.9266 40.658 45.6638 40.4642 45.47C40.2704 45.2762 40.0076 45.1673 39.7335 45.1673M50.0669 45.1673C49.7928 45.1673 49.53 45.0584 49.3362 44.8647C49.1424 44.6709 49.0335 44.408 49.0335 44.134C49.0335 43.8599 49.1424 43.5971 49.3362 43.4033C49.53 43.2095 49.7928 43.1007 50.0669 43.1007M50.0669 45.1673C50.3409 45.1673 50.6038 45.0584 50.7975 44.8647C50.9913 44.6709 51.1002 44.408 51.1002 44.134C51.1002 43.8599 50.9913 43.5971 50.7975 43.4033C50.6038 43.2095 50.3409 43.1007 50.0669 43.1007M54.2002 36.9007C53.9261 36.9007 53.6633 36.7918 53.4695 36.598C53.2757 36.4042 53.1669 36.1414 53.1669 35.8673C53.1669 35.5933 53.2757 35.3304 53.4695 35.1366C53.6633 34.9429 53.9261 34.834 54.2002 34.834M54.2002 36.9007C54.4743 36.9007 54.7371 36.7918 54.9309 36.598C55.1247 36.4042 55.2335 36.1414 55.2335 35.8673C55.2335 35.5933 55.1247 35.3304 54.9309 35.1366C54.7371 34.9429 54.4743 34.834 54.2002 34.834" stroke="#BF9E5F" stroke-width="2"/>
</svg>
