<svg width="13" height="19" viewBox="0 0 13 19" fill="none" xmlns="http://www.w3.org/2000/svg">
<path d="M8.64287 6.50014C8.64287 7.06843 8.41711 7.61344 8.01528 8.01528C7.61344 8.41711 7.06843 8.64287 6.50014 8.64287C5.93186 8.64287 5.38685 8.41711 4.98501 8.01528C4.58317 7.61344 4.35742 7.06843 4.35742 6.50014C4.35742 5.93186 4.58317 5.38685 4.98501 4.98501C5.38685 4.58317 5.93186 4.35742 6.50014 4.35742C7.06843 4.35742 7.61344 4.58317 8.01528 4.98501C8.41711 5.38685 8.64287 5.93186 8.64287 6.50014Z" stroke="white"/>
<path d="M7.57739 13.7797C7.28789 14.0583 6.90177 14.2139 6.50003 14.2139C6.0983 14.2139 5.71217 14.0583 5.42267 13.7797C2.77512 11.2145 -0.772365 8.34922 0.95724 4.18891C1.89404 1.93905 4.13961 0.5 6.50003 0.5C8.86045 0.5 11.1069 1.93991 12.0428 4.18891C13.7707 8.34322 10.2318 11.223 7.57739 13.7797Z" stroke="white"/>
<path d="M11.6425 15.9277C11.6425 16.8748 9.34035 17.6419 6.49995 17.6419C3.65956 17.6419 1.35742 16.8748 1.35742 15.9277" stroke="white" stroke-linecap="round"/>
</svg>
