<svg width="80" height="80" viewBox="0 0 80 80" fill="none" xmlns="http://www.w3.org/2000/svg">
<path d="M30 36.668C30 39.3201 31.0536 41.8637 32.9289 43.739C34.8043 45.6144 37.3478 46.668 40 46.668C42.6522 46.668 45.1957 45.6144 47.0711 43.739C48.9464 41.8637 50 39.3201 50 36.668C50 34.0158 48.9464 31.4723 47.0711 29.5969C45.1957 27.7215 42.6522 26.668 40 26.668C37.3478 26.668 34.8043 27.7215 32.9289 29.5969C31.0536 31.4723 30 34.0158 30 36.668Z" stroke="#BF9E5F" stroke-width="2" stroke-linecap="round" stroke-linejoin="round"/>
<path d="M39.5667 71.6009C37.9539 71.4962 36.4341 70.8091 35.29 69.6676L21.1433 55.5243C17.8228 52.2022 15.4387 48.0621 14.2321 43.5227C13.0256 38.9834 13.0394 34.2058 14.2722 29.6735C15.5049 25.1412 17.913 21.0149 21.2526 17.7121C24.5922 14.4093 28.7449 12.0472 33.2906 10.8647C37.8363 9.68227 42.6137 9.72143 47.1394 10.9782C51.6651 12.2351 55.7786 14.6649 59.0636 18.0221C62.3486 21.3792 64.6887 25.5444 65.847 30.0963C67.0053 34.6482 66.9408 39.4253 65.66 43.9443M50 63.3343L56.6667 70.0009L70 56.6676" stroke="#BF9E5F" stroke-width="2" stroke-linecap="round" stroke-linejoin="round"/>
</svg>
