<svg width="80" height="81" viewBox="0 0 80 81" fill="none" xmlns="http://www.w3.org/2000/svg">
<path d="M40.0005 57C40.3981 57.0001 40.7798 57.1573 41.061 57.4385C41.3423 57.7198 41.5005 58.1022 41.5005 58.5V70.5C41.5004 70.8977 41.3422 71.2794 41.061 71.5605C40.7798 71.8417 40.3981 71.9999 40.0005 72C39.6027 72 39.2203 71.8419 38.939 71.5605C38.6578 71.2794 38.5006 70.8976 38.5005 70.5V58.5C38.5005 58.1022 38.6577 57.7198 38.939 57.4385C39.2203 57.1572 39.6027 57 40.0005 57ZM22.1978 9.01074C22.5925 9.06327 22.9509 9.27065 23.1929 9.58691C23.4348 9.90308 23.5412 10.3027 23.4888 10.6973L15.4888 70.6973C15.4362 71.092 15.2289 71.4504 14.9126 71.6924C14.5964 71.9343 14.1969 72.0407 13.8022 71.9883C13.4075 71.9358 13.0491 71.7284 12.8071 71.4121C12.5653 71.0959 12.4588 70.6964 12.5112 70.3018L20.5112 10.3018C20.5638 9.90702 20.7711 9.54862 21.0874 9.30664C21.4036 9.06477 21.8032 8.95834 22.1978 9.01074ZM57.8022 9.01074C58.1968 8.95832 58.5964 9.06478 58.9126 9.30664C59.2289 9.54862 59.4362 9.90702 59.4888 10.3018L67.4888 70.3018C67.5412 70.6964 67.4348 71.0959 67.1929 71.4121C66.9509 71.7284 66.5925 71.9358 66.1978 71.9883C65.8031 72.0407 65.4036 71.9343 65.0874 71.6924C64.7711 71.4504 64.5638 71.092 64.5112 70.6973L56.5112 10.6973C56.4588 10.3027 56.5653 9.90307 56.8071 9.58691C57.0491 9.27065 57.4075 9.06327 57.8022 9.01074ZM40.0005 33C40.3981 33.0001 40.7798 33.1573 41.061 33.4385C41.3423 33.7198 41.5005 34.1022 41.5005 34.5V46.5C41.5004 46.8977 41.3422 47.2794 41.061 47.5605C40.7798 47.8417 40.3981 47.9999 40.0005 48C39.6027 48 39.2203 47.8419 38.939 47.5605C38.6578 47.2794 38.5006 46.8976 38.5005 46.5V34.5C38.5005 34.1022 38.6577 33.7198 38.939 33.4385C39.2203 33.1572 39.6027 33 40.0005 33ZM40.0005 9C40.3981 9.00012 40.7798 9.1573 41.061 9.43848C41.3423 9.71978 41.5005 10.1022 41.5005 10.5V22.5C41.5004 22.8977 41.3422 23.2794 41.061 23.5605C40.7798 23.8417 40.3981 23.9999 40.0005 24C39.6027 24 39.2203 23.8419 38.939 23.5605C38.6578 23.2794 38.5006 22.8976 38.5005 22.5V10.5C38.5005 10.1022 38.6577 9.71978 38.939 9.43848C39.2203 9.15717 39.6027 9 40.0005 9Z" fill="#BF9E5F" stroke="#342C27"/>
</svg>
