<svg width="80" height="80" viewBox="0 0 80 80" fill="none" xmlns="http://www.w3.org/2000/svg">
<path d="M67.5 13.75H12.5C11.5054 13.75 10.5516 14.1451 9.84835 14.8483C9.14509 15.5516 8.75 16.5054 8.75 17.5V62.5C8.75 63.4946 9.14509 64.4484 9.84835 65.1516C10.5516 65.8549 11.5054 66.25 12.5 66.25H67.5C68.4946 66.25 69.4484 65.8549 70.1516 65.1516C70.8549 64.4484 71.25 63.4946 71.25 62.5V17.5C71.25 16.5054 70.8549 15.5516 70.1516 14.8483C69.4484 14.1451 68.4946 13.75 67.5 13.75ZM68.75 62.5C68.75 62.8315 68.6183 63.1495 68.3839 63.3839C68.1495 63.6183 67.8315 63.75 67.5 63.75H12.5C12.1685 63.75 11.8505 63.6183 11.6161 63.3839C11.3817 63.1495 11.25 62.8315 11.25 62.5V17.5C11.25 17.1685 11.3817 16.8505 11.6161 16.6161C11.8505 16.3817 12.1685 16.25 12.5 16.25H67.5C67.8315 16.25 68.1495 16.3817 68.3839 16.6161C68.6183 16.8505 68.75 17.1685 68.75 17.5V62.5ZM53.75 27.5C53.75 31.1467 52.3013 34.6441 49.7227 37.2227C47.1441 39.8013 43.6467 41.25 40 41.25C36.3533 41.25 32.8559 39.8013 30.2773 37.2227C27.6987 34.6441 26.25 31.1467 26.25 27.5C26.25 27.1685 26.3817 26.8505 26.6161 26.6161C26.8505 26.3817 27.1685 26.25 27.5 26.25C27.8315 26.25 28.1495 26.3817 28.3839 26.6161C28.6183 26.8505 28.75 27.1685 28.75 27.5C28.75 30.4837 29.9353 33.3452 32.045 35.455C34.1548 37.5647 37.0163 38.75 40 38.75C42.9837 38.75 45.8452 37.5647 47.9549 35.455C50.0647 33.3452 51.25 30.4837 51.25 27.5C51.25 27.1685 51.3817 26.8505 51.6161 26.6161C51.8505 26.3817 52.1685 26.25 52.5 26.25C52.8315 26.25 53.1495 26.3817 53.3839 26.6161C53.6183 26.8505 53.75 27.1685 53.75 27.5Z" fill="#BF9E5F"/>
</svg>
