<svg width="80" height="80" viewBox="0 0 80 80" fill="none" xmlns="http://www.w3.org/2000/svg">
<path d="M70.5599 26.666C65.4149 14.8927 53.6666 6.66602 39.9999 6.66602C26.3333 6.66602 14.5833 14.8927 9.43994 26.666" stroke="#BF9E5F" stroke-width="2" stroke-linecap="round" stroke-linejoin="round"/>
<path d="M40 23.332C36.8293 26.4321 34.3111 30.1354 32.5937 34.2237C30.8763 38.312 29.9944 42.7026 30 47.137C30 47.9704 30.0306 48.797 30.0917 49.617C33.235 52.7141 35.73 56.4063 37.4312 60.4779C39.1324 64.5496 40.0056 68.9193 40 73.332C39.9942 68.919 40.8674 64.549 42.5685 60.477C44.2697 56.405 46.7649 52.7127 49.9084 49.6154C49.9695 48.7976 50 47.9715 50 47.137C50.0057 42.7026 49.1238 38.312 47.4064 34.2237C45.689 30.1354 43.1707 26.4321 40 23.332Z" stroke="#BF9E5F" stroke-width="2" stroke-linecap="round" stroke-linejoin="round"/>
<path d="M6.6665 40C6.6665 58.41 21.5898 73.3334 39.9998 73.3334C40.0057 68.9203 39.1325 64.5503 37.4313 60.4783C35.7301 56.4064 33.235 52.714 30.0915 49.6167C23.8582 43.4454 15.438 39.9886 6.6665 40Z" stroke="#BF9E5F" stroke-width="2" stroke-linecap="round" stroke-linejoin="round"/>
<path d="M73.3334 40C73.3334 58.41 58.41 73.3334 40 73.3334C39.9942 68.9203 40.8674 64.5503 42.5685 60.4783C44.2697 56.4064 46.7649 52.714 49.9084 49.6167C56.1416 43.4454 64.5619 39.9886 73.3334 40Z" stroke="#BF9E5F" stroke-width="2" stroke-linecap="round" stroke-linejoin="round"/>
</svg>
