<svg width="40" height="40" viewBox="0 0 40 40" fill="none" xmlns="http://www.w3.org/2000/svg">
<path d="M24.1666 15.0007C24.1666 16.1057 23.7277 17.1655 22.9463 17.9469C22.1649 18.7283 21.105 19.1673 20 19.1673C18.8949 19.1673 17.8351 18.7283 17.0537 17.9469C16.2723 17.1655 15.8333 16.1057 15.8333 15.0007C15.8333 13.8956 16.2723 12.8358 17.0537 12.0544C17.8351 11.273 18.8949 10.834 20 10.834C21.105 10.834 22.1649 11.273 22.9463 12.0544C23.7277 12.8358 24.1666 13.8956 24.1666 15.0007Z" stroke="#BF9E5F" stroke-width="1.6"/>
<path d="M22.095 29.1573C21.532 29.6989 20.7812 30.0015 20 30.0015C19.2188 30.0015 18.4679 29.6989 17.905 29.1573C12.7567 24.169 5.85832 18.5973 9.22165 10.5073C11.0433 6.13232 15.41 3.33398 20 3.33398C24.59 3.33398 28.9583 6.13398 30.7783 10.5073C34.1383 18.5857 27.2567 24.1856 22.095 29.1573Z" stroke="#BF9E5F" stroke-width="1.6"/>
<path d="M30 33.334C30 35.1757 25.5233 36.6673 20 36.6673C14.4767 36.6673 10 35.1757 10 33.334" stroke="#BF9E5F" stroke-width="1.6" stroke-linecap="round"/>
</svg>
