<svg width="24" height="24" viewBox="0 0 24 24" fill="none" xmlns="http://www.w3.org/2000/svg">
<path d="M17.5739 2.3479C16.5857 2.24603 15.5926 2.19643 14.5989 2.19934C11.3045 2.19934 9.25714 4.23923 9.25714 7.52286V9.75227H6.4898C6.35989 9.75227 6.23531 9.80243 6.14346 9.89173C6.0516 9.98103 6 10.1021 6 10.2284V13.8949C6 14.0212 6.0516 14.1423 6.14346 14.2316C6.23531 14.3209 6.35989 14.3711 6.4898 14.3711H9.25714V21.7231C9.25714 21.8493 9.30875 21.9705 9.4006 22.0598C9.49246 22.1491 9.61704 22.1992 9.74694 22.1992H13.6438C13.7737 22.1992 13.8982 22.1491 13.9901 22.0598C14.0819 21.9705 14.1336 21.8493 14.1336 21.7231V14.3711H16.8921C17.011 14.3711 17.1259 14.3291 17.2153 14.2529C17.3047 14.1767 17.3625 14.0714 17.378 13.9568L17.8648 10.2903C17.8739 10.2231 17.8681 10.1548 17.8478 10.09C17.8275 10.0251 17.7933 9.96523 17.7473 9.91429C17.7013 9.86336 17.6446 9.82255 17.5811 9.79461C17.5176 9.76667 17.4487 9.75223 17.3789 9.75227H14.1336V7.88665C14.1336 6.96289 14.3246 6.5772 15.5128 6.5772H17.5102C17.6401 6.5772 17.7647 6.52703 17.8565 6.43773C17.9484 6.34844 18 6.22732 18 6.10103V2.82026C18.0001 2.70465 17.9569 2.59298 17.8784 2.50606C17.8 2.41915 17.6918 2.36293 17.5739 2.3479ZM17.0204 5.62392L15.5118 5.62487C13.3989 5.62487 13.154 6.91623 13.154 7.88665V10.2294C13.154 10.3555 13.2054 10.4765 13.2971 10.5657C13.3887 10.655 13.513 10.7053 13.6428 10.7055H16.8225L16.4611 13.4197H13.6438C13.5139 13.4197 13.3893 13.4699 13.2974 13.5592C13.2056 13.6485 13.154 13.7696 13.154 13.8959V21.2459H10.2367V13.8959C10.2367 13.7696 10.1851 13.6485 10.0933 13.5592C10.0014 13.4699 9.87684 13.4197 9.74694 13.4197H6.98057V10.7055H9.74694C9.87684 10.7055 10.0014 10.6554 10.0933 10.5661C10.1851 10.4768 10.2367 10.3557 10.2367 10.2294V7.52286C10.2367 4.78587 11.8678 3.15167 14.5989 3.15167C15.5873 3.15167 16.4797 3.20405 17.0204 3.24976V5.62392Z" fill="#BF9E5F"/>
</svg>
