<svg width="24" height="24" viewBox="0 0 24 24" fill="none" xmlns="http://www.w3.org/2000/svg">
<path d="M18.4365 20.9365H5.5625C4.89946 20.9365 4.26357 20.6731 3.79473 20.2043C3.32589 19.7354 3.0625 19.0995 3.0625 18.4365V5.5625C3.0625 4.89946 3.32589 4.26357 3.79473 3.79473C4.26357 3.32589 4.89946 3.0625 5.5625 3.0625H18.4365C19.0995 3.0625 19.7354 3.32589 20.2043 3.79473C20.6731 4.26357 20.9365 4.89946 20.9365 5.5625V18.4365C20.9365 19.0995 20.6731 19.7354 20.2043 20.2043C19.7354 20.6731 19.0995 20.9365 18.4365 20.9365ZM5.5625 4.0625C5.16468 4.0625 4.78314 4.22054 4.50184 4.50184C4.22054 4.78314 4.0625 5.16468 4.0625 5.5625V18.4365C4.0625 18.8343 4.22054 19.2159 4.50184 19.4972C4.78314 19.7785 5.16468 19.9365 5.5625 19.9365H18.4365C18.8343 19.9365 19.2159 19.7785 19.4972 19.4972C19.7785 19.2159 19.9365 18.8343 19.9365 18.4365V5.5625C19.9365 5.16468 19.7785 4.78314 19.4972 4.50184C19.2159 4.22054 18.8343 4.0625 18.4365 4.0625H5.5625Z" fill="#BF9E5F"/>
<path d="M12.0002 16.5943C11.0915 16.5933 10.2036 16.323 9.44857 15.8174C8.69357 15.3119 8.10539 14.5938 7.7584 13.754C7.41141 12.9143 7.32119 11.9905 7.49913 11.0994C7.67708 10.2084 8.1152 9.39011 8.75812 8.74802C9.40104 8.10594 10.2199 7.66889 11.1112 7.4921C12.0024 7.31532 12.9261 7.40675 13.7654 7.75484C14.6048 8.10292 15.322 8.69203 15.8266 9.4477C16.3312 10.2034 16.6004 11.0917 16.6002 12.0003C16.5986 13.2193 16.1132 14.3877 15.2507 15.2491C14.3882 16.1105 13.2191 16.5943 12.0002 16.5943ZM12.0002 8.4003C11.2896 8.40128 10.5952 8.61284 10.0048 9.00825C9.41434 9.40365 8.95434 9.96516 8.68286 10.6219C8.41138 11.2786 8.34061 12.001 8.47948 12.6979C8.61836 13.3948 8.96064 14.0349 9.46311 14.5373C9.96558 15.0398 10.6057 15.3821 11.3026 15.521C11.9995 15.6598 12.7219 15.5891 13.3786 15.3176C14.0353 15.0461 14.5968 14.5861 14.9922 13.9957C15.3876 13.4053 15.5992 12.7109 15.6002 12.0003C15.6002 11.0455 15.2209 10.1298 14.5457 9.45471C13.8706 8.77958 12.9549 8.4003 12.0002 8.4003Z" fill="#BF9E5F"/>
<path d="M17.2 7.90586C17.7937 7.90586 18.275 7.42457 18.275 6.83086C18.275 6.23715 17.7937 5.75586 17.2 5.75586C16.6063 5.75586 16.125 6.23715 16.125 6.83086C16.125 7.42457 16.6063 7.90586 17.2 7.90586Z" fill="#BF9E5F"/>
</svg>
