<svg width="80" height="80" viewBox="0 0 80 80" fill="none" xmlns="http://www.w3.org/2000/svg">
<path d="M74.3496 70.6504V74.3496H5.65039V70.6504H74.3496ZM20 28.1504H61.25C64.0613 28.1504 66.7572 29.267 68.7451 31.2549C70.733 33.2428 71.8496 35.9387 71.8496 38.75C71.8496 41.5613 70.733 44.2572 68.7451 46.2451C66.7572 48.233 64.0613 49.3496 61.25 49.3496H59.3496V52.5C59.3456 55.6416 58.0965 58.6535 55.875 60.875C53.6534 63.0966 50.6409 64.3458 47.499 64.3496H27.501C24.3591 64.3458 21.3466 63.0966 19.125 60.875C17.0423 58.7923 15.8136 56.0147 15.665 53.0869L15.6504 52.499V32.5C15.6504 31.3463 16.108 30.2396 16.9238 29.4238C17.7396 28.608 18.8463 28.1504 20 28.1504ZM19.3496 52.501C19.3519 54.6615 20.2115 56.733 21.7393 58.2607C23.267 59.7885 25.3385 60.6481 27.499 60.6504H47.501C49.6615 60.6481 51.733 59.7885 53.2607 58.2607C54.7885 56.733 55.6481 54.6615 55.6504 52.501V31.8496H19.3496V52.501ZM59.3496 45.6504H61.25C63.08 45.6504 64.8349 44.9229 66.1289 43.6289C67.4229 42.3349 68.1504 40.58 68.1504 38.75C68.1504 36.92 67.4229 35.1651 66.1289 33.8711C64.8349 32.5771 63.08 31.8496 61.25 31.8496H59.3496V45.6504ZM31.8496 3.15039V5.36328C31.8464 6.41386 32.138 7.44426 32.6904 8.33789C33.2426 9.231 34.0341 9.95117 34.9746 10.418V10.4189L41.6816 13.7715L41.6836 13.7725C43.2396 14.5445 44.5478 15.7372 45.4609 17.2148C46.3243 18.6121 46.802 20.2111 46.8467 21.8496H43.1406C43.0951 20.8995 42.8121 19.9741 42.3105 19.1621C41.7585 18.2685 40.9671 17.5472 40.0264 17.0801L33.3154 13.7285L33.3145 13.7275L33.0254 13.5781C31.5965 12.8053 30.3928 11.6705 29.5371 10.2852C28.6245 8.80759 28.1446 7.10384 28.1504 5.36719V3.15039H31.8496Z" fill="#BF9E5F" stroke="white" stroke-width="1.3"/>
</svg>
