<svg width="80" height="80" viewBox="0 0 80 80" fill="none" xmlns="http://www.w3.org/2000/svg">
<path d="M35.0713 58.8696V71M35.0713 58.8696C35.0713 48.087 43.6674 32.436 54.2421 23.6832L58.1426 20.4565V19.7826H44.6472M35.0713 58.8696C35.0713 48.087 26.4752 32.436 15.9004 23.6832L12 20.4565V19.7826H44.6472M35.0713 71H21.4999M35.0713 71H48.6426M44.6472 19.7826C44.9092 17.4554 45.8438 15.2533 47.3383 13.442C48.8327 11.6307 50.8231 10.2877 53.0692 9.57521C55.3153 8.86266 57.721 8.81101 59.996 9.42646C62.271 10.0419 64.3179 11.2982 65.8898 13.0436C67.4617 14.789 68.4913 16.949 68.8544 19.2628C69.2174 21.5766 68.8983 23.9453 67.9357 26.0829C66.973 28.2206 65.4079 30.0358 63.4294 31.3095C61.4508 32.5832 59.1433 33.2609 56.7854 33.2609M22.8571 30.5652H47.2855" stroke="#BF9E5F" stroke-width="2"/>
</svg>
