<svg width="80" height="80" viewBox="0 0 80 80" fill="none" xmlns="http://www.w3.org/2000/svg">
<path d="M27.1471 33.7988C29.2737 38.1296 31.543 42.1844 31.0222 47.1724C30.182 55.1487 20.513 58.1496 14.3254 61.8231C10.2736 64.2318 11.7896 70.9992 16.762 70.9992C22.7885 70.9992 28.1701 70.5187 33.6107 67.9612L44.2748 61.3984C45.7566 60.7009 47.6228 60.9985 49.2007 61.6991" stroke="#BF9E5F" stroke-width="2" stroke-linecap="round" stroke-linejoin="round"/>
<path d="M52.3318 33.7988C50.1618 38.1296 47.843 42.1844 48.3793 47.1724C49.2349 55.1487 59.1116 58.1496 65.4263 61.8231C69.5618 64.2318 68.0148 70.9992 62.9401 70.9992C56.7834 70.9992 51.2871 70.5187 45.7349 67.9612L34.8414 61.3984C33.5704 60.8125 32.0204 60.9303 30.6006 61.3984" stroke="#BF9E5F" stroke-width="2" stroke-linecap="round" stroke-linejoin="round"/>
<path d="M33.7002 15.2001C33.7002 16.8444 34.3534 18.4214 35.5162 19.5842C36.6789 20.7469 38.2559 21.4001 39.9003 21.4001C41.5446 21.4001 43.1216 20.7469 44.2844 19.5842C45.4471 18.4214 46.1003 16.8444 46.1003 15.2001C46.1003 13.5557 45.4471 11.9787 44.2844 10.816C43.1216 9.65322 41.5446 9 39.9003 9C38.2559 9 36.6789 9.65322 35.5162 10.816C34.3534 11.9787 33.7002 13.5557 33.7002 15.2001Z" stroke="#BF9E5F" stroke-width="2"/>
<path d="M12.0005 52.3999C19.5832 52.3999 22.987 44.0143 24.0689 38.2327C24.3541 36.7199 24.8129 35.2164 25.8142 34.0508C27.5593 32.0246 29.7213 30.3993 32.1525 29.2859C34.5837 28.1724 37.2267 27.5973 39.9008 27.5996C45.5304 27.5996 50.5773 30.1013 53.9873 34.0508C54.9886 35.2164 55.4474 36.7199 55.7326 38.2296C56.8176 44.0143 60.2184 52.3999 67.801 52.3999" stroke="#BF9E5F" stroke-width="2" stroke-linecap="round" stroke-linejoin="round"/>
</svg>
