<svg width="25" height="25" viewBox="0 0 25 25" fill="none" xmlns="http://www.w3.org/2000/svg">
<path d="M5.08384 8.76078C5.79733 11.5433 7.24539 14.0829 9.27656 16.1141C11.3077 18.1452 13.8474 19.5933 16.6298 20.3068C18.7708 20.8518 20.5898 19.0108 20.5898 16.8008V15.8008C20.5898 15.2488 20.1408 14.8058 19.5918 14.7508C18.6814 14.6603 17.7878 14.4453 16.9358 14.1118L15.4158 15.6318C12.941 14.4454 10.9453 12.4497 9.75884 9.97478L11.2788 8.45478C10.945 7.6029 10.7297 6.70922 10.6388 5.79878C10.5848 5.24878 10.1418 4.80078 9.58984 4.80078H8.58984C6.37984 4.80078 4.53884 6.61978 5.08384 8.76078Z" stroke="#BF9E5F" stroke-linecap="round" stroke-linejoin="round"/>
</svg>
