<svg width="80" height="81" viewBox="0 0 80 81" fill="none" xmlns="http://www.w3.org/2000/svg">
<path d="M36.6668 40.4992C36.6668 40.7932 36.5498 41.0752 36.3414 41.2831C36.133 41.491 35.8504 41.6078 35.5557 41.6078H22.2223C21.9276 41.6078 21.645 41.491 21.4366 41.2831C21.2282 41.0752 21.1112 40.7932 21.1112 40.4992C21.1112 40.2051 21.2282 39.9232 21.4366 39.7152C21.645 39.5073 21.9276 39.3905 22.2223 39.3905H35.5557C35.8504 39.3905 36.133 39.5073 36.3414 39.7152C36.5498 39.9232 36.6668 40.2051 36.6668 40.4992ZM35.5557 30.5212H22.2223C21.9276 30.5212 21.645 30.638 21.4366 30.846C21.2282 31.0539 21.1112 31.3359 21.1112 31.6299C21.1112 31.9239 21.2282 32.2059 21.4366 32.4138C21.645 32.6218 21.9276 32.7386 22.2223 32.7386H35.5557C35.8504 32.7386 36.133 32.6218 36.3414 32.4138C36.5498 32.2059 36.6668 31.9239 36.6668 31.6299C36.6668 31.3359 36.5498 31.0539 36.3414 30.846C36.133 30.638 35.8504 30.5212 35.5557 30.5212ZM65.5559 47.0791V64.8897C65.5562 65.0845 65.5051 65.2758 65.4077 65.4446C65.3103 65.6134 65.17 65.7536 65.0011 65.8511C64.8321 65.9486 64.6404 65.9999 64.4452 66C64.25 66.0001 64.0583 65.9488 63.8893 65.8515L56.667 61.7328L49.4447 65.8515C49.2757 65.9488 49.0839 66.0001 48.8887 66C48.6936 65.9999 48.5018 65.9486 48.3329 65.8511C48.1639 65.7536 48.0237 65.6134 47.9263 65.4446C47.8289 65.2758 47.7777 65.0845 47.778 64.8897V57.1291H13.3334C12.4493 57.1291 11.6014 56.7787 10.9763 56.1549C10.3512 55.5312 10 54.6852 10 53.8031V18.326C10 17.4439 10.3512 16.5979 10.9763 15.9742C11.6014 15.3504 12.4493 15 13.3334 15H62.2226C63.1066 15 63.9545 15.3504 64.5796 15.9742C65.2047 16.5979 65.5559 17.4439 65.5559 18.326V27.2673C66.9539 28.5132 68.0725 30.0396 68.8383 31.7467C69.6041 33.4537 70 35.3029 70 37.1732C70 39.0435 69.6041 40.8927 68.8383 42.5997C68.0725 44.3068 66.9539 45.8332 65.5559 47.0791ZM56.667 26.0866C54.4694 26.0866 52.3212 26.7368 50.4939 27.955C48.6667 29.1732 47.2426 30.9047 46.4016 32.9305C45.5606 34.9564 45.3406 37.1855 45.7693 39.3361C46.198 41.4867 47.2563 43.4621 48.8102 45.0126C50.3641 46.5631 52.3439 47.619 54.4993 48.0468C56.6547 48.4746 58.8887 48.255 60.919 47.4159C62.9494 46.5768 64.6847 45.1558 65.9056 43.3326C67.1265 41.5094 67.7782 39.3659 67.7782 37.1732C67.7782 34.2329 66.6075 31.4129 64.5238 29.3338C62.44 27.2547 59.6138 26.0866 56.667 26.0866ZM47.778 54.9118V47.0791C45.3409 44.879 43.804 41.8583 43.4624 38.5967C43.1207 35.3352 43.9984 32.0627 45.9268 29.4073C47.8553 26.7519 50.6987 24.9007 53.9114 24.2091C57.124 23.5174 60.4794 24.034 63.3337 25.6598V18.326C63.3337 18.0319 63.2166 17.75 63.0083 17.542C62.7999 17.3341 62.5173 17.2173 62.2226 17.2173H13.3334C13.0387 17.2173 12.7561 17.3341 12.5477 17.542C12.3393 17.75 12.2222 18.0319 12.2222 18.326V53.8031C12.2222 54.0971 12.3393 54.3791 12.5477 54.587C12.7561 54.795 13.0387 54.9118 13.3334 54.9118H47.778ZM63.3337 48.6866C61.3085 49.8595 59.0086 50.4772 56.667 50.4772C54.3254 50.4772 52.0254 49.8595 50.0003 48.6866V62.98L56.1114 59.4933C56.2803 59.396 56.4719 59.3448 56.667 59.3448C56.862 59.3448 57.0536 59.396 57.2225 59.4933L63.3337 62.98V48.6866Z" fill="#BF9E5F"/>
</svg>
