<svg width="80" height="80" viewBox="0 0 80 80" fill="none" xmlns="http://www.w3.org/2000/svg">
<path d="M9.30359 29.7851H29.698V9.39062H9.30359V29.7851ZM11.8423 11.9293H27.1593V27.2463H11.8423V11.9293Z" fill="white"/>
<path d="M23.9859 15.1016H15.0157V24.0718H23.9859V15.1016Z" fill="white"/>
<path d="M9.30359 70.5723H29.698V50.1777H9.30359V70.5723ZM11.8423 52.7165H27.1593V68.0335H11.8423V52.7165Z" fill="white"/>
<path d="M23.9859 55.8906H15.0157V64.8608H23.9859V55.8906Z" fill="white"/>
<path d="M70.487 9.39062H50.0926V29.7851H70.487V9.39062ZM67.9483 27.2463H52.6313V11.9293H67.9483V27.2463Z" fill="white"/>
<path d="M64.7749 15.1016H55.8047V24.0718H64.7749V15.1016Z" fill="white"/>
<path d="M3.47896 3.47896H20.4963V0H0V20.4963H3.47896V3.47896Z" fill="white"/>
<path d="M59.5032 0V3.47896H76.5205V20.4963H79.9994V0H59.5032Z" fill="white"/>
<path d="M3.4789 59.5039H-6.10352e-05V80.0002H20.4962V76.5212H3.4789V59.5039Z" fill="white"/>
<path d="M76.5205 76.5212H59.5032V80.0002H79.9994V59.5039H76.5205V76.5212Z" fill="white"/>
<path d="M35.5251 15.2168H32.6116V18.1303H35.5251V15.2168Z" fill="white"/>
<path d="M41.3521 15.2168H38.4386V18.1303H41.3521V15.2168Z" fill="white"/>
<path d="M41.3521 9.39062H38.4386V12.3041H41.3521V9.39062Z" fill="white"/>
<path d="M47.1791 12.3041V9.39062H44.2656V12.3041V15.2175H47.1791V12.3041Z" fill="white"/>
<path d="M47.1791 26.8711H44.2656V29.7846H47.1791V26.8711Z" fill="white"/>
<path d="M58.8331 50.1785H61.7466V47.2651V44.3516H58.8331V47.2651V50.1785Z" fill="white"/>
<path d="M70.487 58.919V56.0055V53.092V50.1785V47.2651H67.5735V44.3516H64.66V47.2651V50.1785V53.092V56.0055V58.919V61.8325H67.5735V58.919H70.487Z" fill="white"/>
<path d="M64.66 61.832H61.7465V64.7455H64.66V61.832Z" fill="white"/>
<path d="M70.4871 61.832H67.5736V64.7455H70.4871V61.832Z" fill="white"/>
<path d="M64.66 67.6596V70.5731H67.5735H70.487V67.6596H67.5735V64.7461H64.66V67.6596Z" fill="white"/>
<path d="M55.9195 56.0061H58.833V53.0926V50.179H55.9195V53.0926H53.006H50.0926V56.0061V58.9196H53.006V61.8331H50.0926V58.9196H47.1791V61.8331V64.7466H44.2656V61.8331V58.9196H41.3521V61.8331V64.7466H38.4386V67.6601H35.5251V64.7466H38.4386V61.8331V58.9196V56.0061H35.5251V53.0926V50.179H38.4386H41.3521V47.2656H38.4386H35.5251H32.6116V50.179V53.0926V56.0061V58.9196H35.5251V61.8331H32.6116V64.7466V67.6601V70.5736H35.5251H38.4386H41.3521H44.2656V67.6601H47.1791V70.5736H50.0926H53.006V67.6601H50.0926V64.7466H53.006H55.9195H58.833V61.8331V58.9196H55.9195V56.0061Z" fill="white"/>
<path d="M61.7466 56.0059H58.8331V58.9194H61.7466V56.0059Z" fill="white"/>
<path d="M64.66 32.6973H61.7465V35.6108H64.66V32.6973Z" fill="white"/>
<path d="M64.6601 41.4383H67.5736H70.4871V38.5248V35.6113H67.5736H64.6601V38.5248H61.7466V35.6113H58.8331V38.5248V41.4383H61.7466H64.6601Z" fill="white"/>
<path d="M38.4386 29.7849V32.6984V35.6119H41.3521V32.6984V29.7849V26.8714H44.2656V23.9579H47.1791V21.0444V18.1309H44.2656V21.0444H41.3521V23.9579H38.4386V21.0444H35.5251V23.9579V26.8714H38.4386V29.7849Z" fill="white"/>
<path d="M23.8711 44.351V47.2645H26.7846H29.6981V44.351H26.7846V41.4375H23.8711V44.351Z" fill="white"/>
<path d="M29.6981 38.5254H26.7846V41.4389H29.6981V38.5254Z" fill="white"/>
<path d="M20.9575 38.5243V35.6108H18.044V32.6973H15.1306H12.2171H9.30359V35.6108V38.5243V41.4378V44.3513V47.2648H12.2171V44.3513H15.1306H18.044V41.4378H15.1306V38.5243H18.044V41.4378H20.9575H23.871V38.5243H20.9575Z" fill="white"/>
<path d="M20.9576 44.3516H18.0441V47.2651H20.9576V44.3516Z" fill="white"/>
<path d="M44.2656 44.3521H47.1791V47.2656H50.0926V50.1791H53.0061H55.9196V47.2656V44.3521H58.8331V41.4386H55.9196V38.5251V35.6116H53.0061V38.5251H50.0926V35.6116H53.0061V32.6981H50.0926H47.1791H44.2656V35.6116H47.1791V38.5251V41.4386H44.2656V38.5251V35.6116H41.3521V38.5251H38.4385H35.525V35.6116V32.6981V29.7846V26.8711H32.6115V29.7846V32.6981H29.698H26.7845H23.871H20.9575V35.6116H23.871V38.5251H26.7845V35.6116H29.698H32.6115V38.5251V41.4386V44.3521H35.525H38.4385H41.3521V47.2656H44.2656V44.3521ZM53.006 41.4386V44.3521H50.0925V41.4386H53.006Z" fill="white"/>
<path d="M47.1791 50.1777H44.2656V53.0912H47.1791V50.1777Z" fill="white"/>
<path d="M47.1791 56.0059H44.2656V58.9194H47.1791V56.0059Z" fill="white"/>
<path d="M41.3521 53.0918H38.4386V56.0053H41.3521V53.0918Z" fill="white"/>
</svg>
