<svg width="80" height="81" viewBox="0 0 80 81" fill="none" xmlns="http://www.w3.org/2000/svg">
<path d="M29.25 41.5508V45.0508H15.75V41.5508H29.25ZM39.25 31.5508V35.0508H15.75V31.5508H39.25ZM39.25 21.5508V25.0508H15.75V21.5508H39.25Z" fill="#BF9E5F" stroke="#342C27" stroke-width="1.5"/>
<path d="M10 11.5508H70C71.1272 11.5508 72.2079 11.9989 73.0049 12.7959C73.8019 13.5929 74.25 14.6736 74.25 15.8008V40.0508H70.75V15.0508H9.25V66.5508H34.25V70.0508H10C8.87283 70.0508 7.79215 69.6027 6.99512 68.8057C6.19809 68.0086 5.75 66.928 5.75 65.8008V15.8008C5.75 14.6736 6.19809 13.5929 6.99512 12.7959C7.79215 11.9989 8.87283 11.5508 10 11.5508Z" fill="#BF9E5F" stroke="#342C27" stroke-width="1.5"/>
<path d="M73.9395 51.8262L55 70.7656L46.0605 61.8262L48.5254 59.3613L54.4697 65.3057L55 65.8369L55.5303 65.3057L71.4746 49.3613L73.9395 51.8262Z" fill="#BF9E5F" stroke="#342C27" stroke-width="1.5"/>
</svg>
