<svg width="32" height="33" viewBox="0 0 32 33" fill="none" xmlns="http://www.w3.org/2000/svg">
<path d="M24.5827 28.7558H7.41732C6.53326 28.7558 5.68542 28.4046 5.0603 27.7795C4.43517 27.1544 4.08398 26.3066 4.08398 25.4225V8.25716C4.08398 7.37311 4.43517 6.52526 5.0603 5.90014C5.68542 5.27502 6.53326 4.92383 7.41732 4.92383H24.5827C25.4667 4.92383 26.3146 5.27502 26.9397 5.90014C27.5648 6.52526 27.916 7.37311 27.916 8.25716V25.4225C27.916 26.3066 27.5648 27.1544 26.9397 27.7795C26.3146 28.4046 25.4667 28.7558 24.5827 28.7558ZM7.41732 6.25716C6.88689 6.25716 6.37818 6.46788 6.0031 6.84295C5.62803 7.21802 5.41732 7.72673 5.41732 8.25716V25.4225C5.41732 25.9529 5.62803 26.4616 6.0031 26.8367C6.37818 27.2118 6.88689 27.4225 7.41732 27.4225H24.5827C25.1131 27.4225 25.6218 27.2118 25.9969 26.8367C26.3719 26.4616 26.5827 25.9529 26.5827 25.4225V8.25716C26.5827 7.72673 26.3719 7.21802 25.9969 6.84295C25.6218 6.46788 25.1131 6.25716 24.5827 6.25716H7.41732Z" fill="white"/>
<path d="M15.9999 22.9662C14.7884 22.9649 13.6044 22.6044 12.5978 21.9304C11.5911 21.2563 10.8069 20.2989 10.3442 19.1792C9.88156 18.0595 9.76126 16.8278 9.99852 15.6397C10.2358 14.4517 10.8199 13.3606 11.6772 12.5045C12.5344 11.6484 13.6262 11.0657 14.8146 10.83C16.0029 10.5943 17.2345 10.7162 18.3536 11.1803C19.4727 11.6444 20.429 12.4299 21.1018 13.4374C21.7746 14.445 22.1335 15.6294 22.1332 16.8409C22.1311 18.4662 21.484 20.0241 20.334 21.1726C19.184 22.3211 17.6252 22.9662 15.9999 22.9662ZM15.9999 12.0409C15.0524 12.0422 14.1266 12.3243 13.3394 12.8515C12.5521 13.3787 11.9388 14.1274 11.5768 15.003C11.2148 15.8786 11.1205 16.8418 11.3057 17.771C11.4908 18.7002 11.9472 19.5537 12.6172 20.2236C13.2871 20.8936 14.1406 21.35 15.0698 21.5351C15.999 21.7203 16.9622 21.6259 17.8378 21.264C18.7134 20.902 19.4621 20.2886 19.9893 19.5014C20.5165 18.7142 20.7986 17.7884 20.7999 16.8409C20.7999 15.5679 20.2942 14.347 19.394 13.4468C18.4938 12.5466 17.2729 12.0409 15.9999 12.0409Z" fill="white"/>
<path d="M22.9333 11.3803C23.7249 11.3803 24.3667 10.7386 24.3667 9.94701C24.3667 9.1554 23.7249 8.51367 22.9333 8.51367C22.1417 8.51367 21.5 9.1554 21.5 9.94701C21.5 10.7386 22.1417 11.3803 22.9333 11.3803Z" fill="white"/>
</svg>
