<svg width="33" height="34" viewBox="0 0 33 34" fill="none" xmlns="http://www.w3.org/2000/svg">
<path d="M23.3934 5.46737C22.2413 5.3452 21.0834 5.28572 19.9249 5.28921C16.0842 5.28921 13.6973 7.7355 13.6973 11.6733V14.3469H10.4709C10.3195 14.3469 10.1742 14.4071 10.0672 14.5141C9.96006 14.6212 9.8999 14.7665 9.8999 14.9179V19.3149C9.8999 19.4663 9.96006 19.6116 10.0672 19.7186C10.1742 19.8257 10.3195 19.8859 10.4709 19.8859H13.6973V28.7026C13.6973 28.854 13.7574 28.9993 13.8645 29.1064C13.9716 29.2135 14.1168 29.2736 14.2683 29.2736H18.8114C18.9629 29.2736 19.1081 29.2135 19.2152 29.1064C19.3223 28.9993 19.3824 28.854 19.3824 28.7026V19.8859H22.5985C22.7371 19.886 22.871 19.8356 22.9753 19.7442C23.0795 19.6528 23.1469 19.5266 23.1649 19.3891L23.7325 14.9922C23.7431 14.9116 23.7364 14.8296 23.7127 14.7519C23.6891 14.6741 23.6491 14.6023 23.5955 14.5412C23.5419 14.4801 23.4758 14.4312 23.4018 14.3977C23.3277 14.3642 23.2474 14.3469 23.1661 14.3469H19.3824V12.1096C19.3824 11.0018 19.6051 10.5393 20.9905 10.5393H23.3191C23.4706 10.5393 23.6158 10.4791 23.7229 10.372C23.83 10.2649 23.8902 10.1197 23.8902 9.96823V6.03383C23.8902 5.89519 23.8398 5.76127 23.7484 5.65704C23.657 5.55281 23.5308 5.48539 23.3934 5.46737ZM22.7481 9.39606L20.9893 9.3972C18.5259 9.3972 18.2404 10.9458 18.2404 12.1096V14.9191C18.2404 15.0703 18.3004 15.2154 18.4072 15.3224C18.5141 15.4295 18.659 15.4898 18.8103 15.4901H22.5174L22.096 18.745H18.8114C18.66 18.745 18.5147 18.8051 18.4076 18.9122C18.3005 19.0193 18.2404 19.1646 18.2404 19.316V28.1304H14.8393V19.316C14.8393 19.1646 14.7792 19.0193 14.6721 18.9122C14.565 18.8051 14.4197 18.745 14.2683 18.745H11.0431V15.4901H14.2683C14.4197 15.4901 14.565 15.4299 14.6721 15.3228C14.7792 15.2158 14.8393 15.0705 14.8393 14.9191V11.6733C14.8393 8.39105 16.7408 6.43127 19.9249 6.43127C21.0773 6.43127 22.1177 6.49408 22.7481 6.5489V9.39606Z" fill="white"/>
</svg>
